M48
; DRILL file {KiCad 9.0.5} date 2026-01-19T14:26:17+0530
; FORMAT={-:-/ absolute / metric / decimal}
; #@! TF.CreationDate,2026-01-19T14:26:17+05:30
; #@! TF.GenerationSoftware,Kicad,Pcbnew,9.0.5
; #@! TF.FileFunction,Plated,1,2,PTH
FMAT,2
METRIC
; #@! TA.AperFunction,Plated,PTH,ComponentDrill
T1C0.800
; #@! TA.AperFunction,Plated,PTH,ComponentDrill
T2C0.889
; #@! TA.AperFunction,Plated,PTH,ComponentDrill
T3C0.900
; #@! TA.AperFunction,Plated,PTH,ComponentDrill
T4C1.100
; #@! TA.AperFunction,Plated,PTH,ComponentDrill
T5C1.397
%
G90
G05
T1
X175.095Y-48.871
X185.255Y-48.871
T2
X145.097Y-47.625
X147.637Y-47.625
X150.177Y-47.625
X157.797Y-34.925
X157.797Y-37.465
X157.797Y-40.005
X173.355Y-25.717
X173.355Y-28.258
X173.355Y-30.797
X173.355Y-33.337
X173.355Y-35.877
X173.355Y-38.417
X173.355Y-40.957
X188.595Y-25.717
X188.595Y-28.258
X188.595Y-30.797
X188.595Y-33.337
X188.595Y-35.877
X188.595Y-38.417
X188.595Y-40.957
X210.979Y-48.736
X213.519Y-48.736
X216.059Y-48.736
X223.679Y-36.036
X223.679Y-38.576
X223.679Y-41.116
T3
X134.938Y-34.29
X134.938Y-40.64
X140.017Y-34.29
X140.017Y-40.64
X175.985Y-54.631
X178.525Y-54.631
X200.819Y-35.401
X200.819Y-41.751
X205.899Y-35.401
X205.899Y-41.751
T4
X133.181Y-66.813
X133.181Y-71.813
X138.181Y-66.813
X138.181Y-71.813
X142.469Y-57.288
X142.469Y-62.288
X142.637Y-75.962
X142.637Y-80.962
X147.469Y-57.288
X147.469Y-62.288
X147.637Y-75.962
X147.637Y-80.962
X154.781Y-66.438
X154.781Y-71.438
X159.781Y-66.438
X159.781Y-71.438
X204.787Y-61.675
X204.787Y-66.675
X209.787Y-61.675
X209.787Y-66.675
X223.6Y-61.675
X223.6Y-66.675
X228.6Y-61.675
X228.6Y-66.675
T5
X140.97Y-29.845
X140.97Y-45.085
X154.305Y-29.845
X154.305Y-45.085
X206.851Y-30.956
X206.851Y-46.196
X220.186Y-30.956
X220.186Y-46.196
M30
