  0
SECTION
  2
HEADER
  9
$ACADVER
  1
AC1006
  9
$EXTMIN
 10
0.000000
 20
0.000000
 30
0.000000
  9
$EXTMAX
 10
542.000000
 20
379.000000
 30
0.000000
  0
ENDSEC
  0
SECTION
  2
ENTITIES
  0
POLYLINE
  8
0
 66
1
 70
1
  0
VERTEX
  8
0
 10
193.637821
 20
321.900008
 42
0.111086
  0
VERTEX
  8
0
 10
176.218139
 20
315.218028
 42
0.083931
  0
VERTEX
  8
0
 10
161.250918
 20
301.133812
 42
0.067453
  0
VERTEX
  8
0
 10
149.245869
 20
279.852410
 42
0.039803
  0
VERTEX
  8
0
 10
140.625774
 20
251.921371
 42
0.013791
  0
VERTEX
  8
0
 10
137.997672
 20
238.416597
 42
0.014289
  0
VERTEX
  8
0
 10
136.153658
 20
224.945996
 42
0.012236
  0
VERTEX
  8
0
 10
134.884493
 20
209.689799
 42
0.006323
  0
VERTEX
  8
0
 10
134.006403
 20
190.565725
 42
0.009029
  0
VERTEX
  8
0
 10
133.607610
 20
164.296530
 42
0.031293
  0
VERTEX
  8
0
 10
134.718827
 20
147.340962
 42
0.049837
  0
VERTEX
  8
0
 10
137.404537
 20
135.745253
 42
0.098971
  0
VERTEX
  8
0
 10
142.109157
 20
127.613331
 42
0.037313
  0
VERTEX
  8
0
 10
145.314838
 20
124.477284
 42
0.042567
  0
VERTEX
  8
0
 10
148.820036
 20
122.002595
 42
0.046727
  0
VERTEX
  8
0
 10
152.038165
 20
120.502177
 42
0.179207
  0
VERTEX
  8
0
 10
154.211685
 20
120.527737
 42
0.168083
  0
VERTEX
  8
0
 10
156.147419
 20
122.156401
 42
0.031907
  0
VERTEX
  8
0
 10
158.284494
 20
126.317170
 42
0.018694
  0
VERTEX
  8
0
 10
161.066662
 20
133.420398
 42
0.003540
  0
VERTEX
  8
0
 10
165.560303
 20
146.589106
 42
-0.012536
  0
VERTEX
  8
0
 10
172.922236
 20
166.957007
 42
-0.031988
  0
VERTEX
  8
0
 10
179.547361
 20
181.182124
 42
-0.044626
  0
VERTEX
  8
0
 10
186.191935
 20
191.127276
 42
-0.077044
  0
VERTEX
  8
0
 10
193.532018
 20
197.813412
 42
0.000000
  0
VERTEX
  8
0
 10
198.342889
 20
201.000000
 42
0.000000
  0
VERTEX
  8
0
 10
272.975664
 20
201.000000
 42
0.000000
  0
VERTEX
  8
0
 10
347.608439
 20
201.000000
 42
0.000000
  0
VERTEX
  8
0
 10
352.277687
 20
198.038851
 42
-0.059882
  0
VERTEX
  8
0
 10
356.740542
 20
194.394375
 42
-0.029968
  0
VERTEX
  8
0
 10
361.477259
 20
188.843935
 42
-0.027405
  0
VERTEX
  8
0
 10
366.073882
 20
182.004643
 42
-0.023807
  0
VERTEX
  8
0
 10
370.133918
 20
174.380879
 42
-0.016582
  0
VERTEX
  8
0
 10
372.062451
 20
169.926435
 42
-0.004125
  0
VERTEX
  8
0
 10
374.913747
 20
162.512992
 42
-0.004212
  0
VERTEX
  8
0
 10
378.036764
 20
153.970587
 42
-0.004219
  0
VERTEX
  8
0
 10
381.013865
 20
145.380879
 42
0.005734
  0
VERTEX
  8
0
 10
386.383672
 20
130.038058
 42
0.049627
  0
VERTEX
  8
0
 10
389.512715
 20
123.515634
 42
0.154151
  0
VERTEX
  8
0
 10
392.409793
 20
120.982763
 42
0.204072
  0
VERTEX
  8
0
 10
395.875418
 20
120.948396
 42
0.084326
  0
VERTEX
  8
0
 10
400.844048
 20
124.070074
 42
0.060647
  0
VERTEX
  8
0
 10
405.175042
 20
129.003677
 42
0.054125
  0
VERTEX
  8
0
 10
408.615674
 20
135.436277
 42
0.042517
  0
VERTEX
  8
0
 10
410.939092
 20
143.000000
 42
0.048307
  0
VERTEX
  8
0
 10
412.655031
 20
157.661317
 42
0.010442
  0
VERTEX
  8
0
 10
412.631666
 20
183.216572
 42
0.011513
  0
VERTEX
  8
0
 10
411.408848
 20
210.479500
 42
0.019443
  0
VERTEX
  8
0
 10
408.972162
 20
233.223165
 42
0.037061
  0
VERTEX
  8
0
 10
400.914900
 20
269.305147
 42
0.070332
  0
VERTEX
  8
0
 10
388.416206
 20
296.257091
 42
0.092376
  0
VERTEX
  8
0
 10
371.797490
 20
313.781310
 42
0.122596
  0
VERTEX
  8
0
 10
351.500000
 20
321.975819
 42
0.034526
  0
VERTEX
  8
0
 10
339.752359
 20
322.807899
 42
0.000542
  0
VERTEX
  8
0
 10
272.470793
 20
322.848512
 42
0.000527
  0
VERTEX
  8
0
 10
205.067943
 20
322.745099
 42
0.035622
  0
SEQEND
  0
ENDSEC
  0
EOF
